<?xml version="1.0" encoding="utf-8"?>
<svg version="1.1" id="Layer_1" xmlns="http://www.w3.org/2000/svg" xmlns:xlink="http://www.w3.org/1999/xlink" x="0px" y="0px"
	 viewBox="0 0 1087.2 259.5" style="enable-background:new 0 0 1087.2 259.5;" xml:space="preserve">
  <style type="text/css">
	.st0{fill:#4481EB;fill-opacity:0;}
	.st1{fill-rule:evenodd;clip-rule:evenodd;fill:#2491EB;}
	.st2{fill-rule:evenodd;clip-rule:evenodd;fill:#145593;}
	.st3{fill:url(#SVGID_1_);}
	.st4{fill:#FFFFFF;}
</style>
  <g transform="translate(44.16999816894531,94.96395492553711)">
    <g transform="matrix(1,0,0,1,0,0)">
      <g>
        <rect x="-44.2" y="-95" class="st0" width="259.2" height="259.5"/>
        <g>
          <path class="st1" d="M-16,115.7l92.9,15.1v-26.3l-104.6-6.2C-24.3,104.4-20.4,110.2-16,115.7z M89.5,164.5v-22.7l-97.2-16.7
					c24.4,25.2,58,39.5,93.1,39.4H89.5z M-40.1,67.7l165.3,2.9v26L-36,80.7C-37.6,76.4-39,72.1-40.1,67.7L-40.1,67.7z M-42.9,54.2
					l147.5,8.5V36.2l-148.7,5.2C-44,45.7-43.5,50-42.9,54.2z M-44.2,27.5l115.4,4.7V4.7L-42.8,15C-43.5,19.2-43.9,23.3-44.2,27.5z
					 M-40,1.3l85.2-3.5v-26l-79.6,13C-36.6-9.8-38.5-4.3-40,1.3z M-27.8-28.7l91.9-8v-28.1l-77.9,15.9
					C-19.1-42.6-23.8-35.8-27.8-28.7L-27.8-28.7z M84.6-95v23.9L-4.6-58.6C19.4-81.8,51.3-94.8,84.6-95z"/>
          <path class="st2" d="M189.4,112.6L76.9,130.8v-26.3l122.3-7.3C196.3,102.6,193,107.8,189.4,112.6z M89.5,164.5v-22.7l89.1-16.8
					C155.2,149.3,123.2,163.5,89.5,164.5z M205.6,83.7l-80.4,13v-26l85.6-2.8c-1.4,5.4-3.1,10.7-5.2,15.9V83.7z M213.8,53.4
					l-109.3,9.3V36.2L215,40.6C214.8,44.9,214.4,49.2,213.8,53.4z M215,28.7L71.2,32.2V4.7l142.2,8.8
					C214.3,18.5,214.8,23.6,215,28.7L215,28.7z M210.6,0.7l-165.4-3v-26l160.9,15.4C207.9-8.3,209.4-3.8,210.6,0.7L210.6,0.7z
					 M199.2-27.5L64.1-36.7v-28.1l123,18.9c4.5,5.7,8.6,11.8,12.1,18.2V-27.5z M84.6-95v23.9l91.3,13C151.7-81.8,119.3-95,85.4-95
					H84.6z"/>
        </g>
      </g>
    </g>
    <g transform="translate(67,6.289043426513672)">
      <g transform="matrix(1,0,0,1,0,0)">
        <linearGradient id="SVGID_1_" gradientUnits="userSpaceOnUse" x1="-527.0844" y1="567.5027" x2="-527.0844" y2="568.5027" gradientTransform="matrix(797.7313 0 0 -141.264 421048.8438 80234.8828)">
          <stop  offset="0" style="stop-color:#00C5FB"/>
          <stop  offset="1" style="stop-color:#175BEA"/>
        </linearGradient>
        <path class="st3" d="M186.9-61h145.8L317.2,52c0,4.4-1.8,8-5.3,10.9c-3.5,2.9-7.5,4.3-11.9,4.3l0,0H178.3l15.2-119.5L186.9-61z
				 M289.2-39.2h-52.3L224,45.5h52.1L289.2-39.2z M475.7-28.4L467.1,28h-69.5l-2.3,17.5h60.9l10.8-8.6l-6.6,30.4H365
				c-4.4,0-7.7-1.4-9.8-4.3c-2.2-2.9-3.3-6.5-3.3-10.9l0,0l10.9-80.4H475.7z M430.2-6.6h-26.3l-2,12.9h26L430.2-6.6z M547.9,26
				l26-54.3h41.4l-52.3,95.6h-43.5l-23.8-87l-6.6-8.6H535L547.9,26z M689.9-61l-4.3,26h-41.4l2.2-26H689.9z M635.5-28.4h50
				l-13.1,95.6H629L642.1-22L635.5-28.4z M723.2-74.1h47.8l-6.4,45.7h69.5L823.2,52c-1.2,4.4-3.3,8-6.4,10.9
				c-3,2.9-6.7,4.3-11.1,4.3l0,0H708l19.4-134.7L723.2-74.1z M788.3-6.6h-26l-7.4,52.1h25.8L788.3-6.6z M976-28.4L967.4,28h-69.5
				l-2.2,17.5h60.9l10.8-8.6l-6.6,30.4h-95.5c-4.4,0-7.7-1.4-9.8-4.3c-2.2-2.9-3.3-6.5-3.3-10.9l0,0L863-28.4H976z M930.5-6.6h-26.3
				l-2,12.9h26L930.5-6.6z"/>
      </g>
      <g transform="matrix(1,0,0,1,5,38.70000076293945)">
        <rect x="194.9" y="71.2" class="st4" width="62.9" height="4.3"/>
        <rect x="886.5" y="71.2" class="st4" width="62.9" height="4.3"/>
        <g transform="translate(17.55999755859375,0)">
          <path class="st4" d="M281.5,84.3L281.5,84.3c0.3,0,0.5,0.1,0.8,0.3l0,0l1.9,2.2c-1.5,1.8-3.3,3.1-5.5,4.1
					c-2.2,1-4.8,1.5-7.8,1.5l0,0c-2.7,0-5.1-0.5-7.3-1.4c-2.2-0.9-4-2.2-5.6-3.9c-1.5-1.6-2.7-3.6-3.6-6c-0.8-2.3-1.3-4.9-1.3-7.7
					l0,0c0-2.8,0.4-5.4,1.3-7.7c0.9-2.3,2.2-4.3,3.8-6s3.6-3,5.9-3.9c2.3-0.9,4.8-1.4,7.6-1.4l0,0c2.7,0,5.1,0.4,7.1,1.3
					c2,0.8,3.7,2,5.3,3.5l0,0l-1.6,2.3c-0.1,0.2-0.3,0.3-0.4,0.4c-0.1,0.1-0.4,0.2-0.6,0.2l0,0c-0.2,0-0.5-0.1-0.7-0.3
					c-0.3-0.1-0.6-0.3-0.9-0.6c-0.3-0.2-0.7-0.5-1.2-0.8c-0.5-0.3-1-0.5-1.6-0.8c-0.6-0.2-1.4-0.4-2.2-0.6c-0.8-0.2-1.8-0.3-2.9-0.3
					l0,0c-2,0-3.8,0.3-5.4,1c-1.6,0.7-3.1,1.7-4.3,2.9c-1.2,1.2-2.1,2.8-2.8,4.6c-0.7,1.8-1,3.8-1,6.1l0,0c0,2.3,0.3,4.4,1,6.2
					c0.7,1.8,1.6,3.3,2.7,4.6c1.2,1.3,2.5,2.2,4.1,2.9c1.6,0.6,3.3,1,5.1,1l0,0c1.1,0,2.1-0.1,3-0.2c0.9-0.1,1.7-0.3,2.5-0.6
					c0.7-0.3,1.4-0.6,2.1-1c0.7-0.4,1.3-1,2-1.6l0,0C281,84.4,281.2,84.3,281.5,84.3z M300.2,76.4h-3.8V92h-5V54.8h10.5
					c2.4,0,4.4,0.2,6.1,0.7c1.7,0.5,3.2,1.1,4.3,2c1.1,0.9,1.9,2,2.5,3.3c0.5,1.3,0.8,2.7,0.8,4.2l0,0c0,1.3-0.2,2.6-0.6,3.7
					c-0.4,1.1-1,2.1-1.8,3.1c-0.8,0.9-1.7,1.7-2.9,2.3c-1.2,0.7-2.4,1.2-3.8,1.5l0,0c0.6,0.4,1.2,0.9,1.6,1.6l0,0L318.8,92h-4.4
					c-0.9,0-1.6-0.4-2-1.1l0,0l-9.6-13.3c-0.3-0.4-0.6-0.7-1-0.9C301.4,76.5,300.9,76.4,300.2,76.4L300.2,76.4z M296.4,58.8v14h5.3
					c1.5,0,2.8-0.2,3.9-0.6c1.1-0.3,2-0.8,2.8-1.5c0.8-0.6,1.4-1.4,1.7-2.3s0.6-1.9,0.6-3l0,0c0-2.2-0.7-3.9-2.2-5
					c-1.4-1.1-3.6-1.7-6.5-1.7l0,0H296.4z M324.2,54.8h22.9v4.1h-17.8v12.4h14.4v3.9h-14.4v12.7h17.8V92h-22.9V54.8z M370.1,54.8
					L384.9,92H381c-0.5,0-0.8-0.1-1.1-0.3c-0.3-0.2-0.5-0.5-0.6-0.9l0,0l-3.5-8.9h-16.7l-3.5,8.9c-0.1,0.3-0.4,0.6-0.6,0.9
					c-0.3,0.2-0.6,0.3-1.1,0.3l0,0h-3.9L365,54.8H370.1z M366.4,63.1l-5.8,15.1h13.9l-5.8-15.1c-0.4-0.9-0.7-2.1-1.1-3.5l0,0
					c-0.2,0.7-0.4,1.4-0.6,1.9C366.8,62.1,366.6,62.6,366.4,63.1L366.4,63.1z M382.4,54.8h29.1V59h-12V92h-5V59h-12.1V54.8z
					 M422.7,54.8V92h-5V54.8H422.7z M443.5,92l-15.1-37.2h4c0.5,0,0.8,0.1,1.1,0.3c0.3,0.2,0.5,0.5,0.6,0.9l0,0l10.5,26.2
					c0.2,0.6,0.4,1.3,0.6,1.9c0.2,0.7,0.4,1.4,0.6,2.2l0,0c0.2-0.7,0.3-1.5,0.5-2.2s0.4-1.3,0.6-1.9l0,0L457.5,56
					c0.1-0.3,0.3-0.6,0.6-0.8c0.3-0.3,0.6-0.4,1.1-0.4l0,0h4.1L448,92H443.5z M468,54.8h22.9v4.1H473v12.4h14.4v3.9H473v12.7h17.8
					V92H468V54.8z M504.3,54.8h29.1V59h-12V92h-5V59h-12.1V54.8z M538.6,54.8h22.9v4.1h-17.8v12.4h14.5v3.9h-14.5v12.7h17.8V92
					h-22.9V54.8z M595,84.3L595,84.3c0.3,0,0.5,0.1,0.7,0.3l0,0l2,2.2c-1.5,1.8-3.4,3.1-5.5,4.1c-2.2,1-4.8,1.5-7.9,1.5l0,0
					c-2.7,0-5.1-0.5-7.3-1.4c-2.2-0.9-4-2.2-5.6-3.9c-1.5-1.6-2.7-3.6-3.5-6c-0.9-2.3-1.3-4.9-1.3-7.7l0,0c0-2.8,0.5-5.4,1.4-7.7
					c0.9-2.3,2.2-4.3,3.8-6s3.6-3,5.9-3.9c2.3-0.9,4.8-1.4,7.6-1.4l0,0c2.7,0,5.1,0.4,7.1,1.3c2,0.8,3.7,2,5.3,3.5l0,0l-1.6,2.3
					c-0.1,0.2-0.3,0.3-0.4,0.4c-0.1,0.1-0.4,0.2-0.6,0.2l0,0c-0.2,0-0.5-0.1-0.7-0.3c-0.2-0.1-0.5-0.3-0.9-0.6
					c-0.3-0.2-0.8-0.5-1.3-0.8c-0.5-0.3-1-0.5-1.6-0.8c-0.6-0.2-1.4-0.4-2.2-0.6c-0.8-0.2-1.8-0.3-2.9-0.3l0,0c-2,0-3.8,0.3-5.5,1
					c-1.6,0.7-3.1,1.7-4.2,2.9c-1.2,1.2-2.1,2.8-2.8,4.6c-0.7,1.8-1,3.8-1,6.1l0,0c0,2.3,0.3,4.4,1,6.2c0.7,1.8,1.6,3.3,2.7,4.6
					c1.2,1.3,2.5,2.2,4.1,2.9c1.6,0.6,3.2,1,5.1,1l0,0c1.1,0,2.1-0.1,3-0.2c0.9-0.1,1.7-0.3,2.5-0.6c0.7-0.3,1.5-0.6,2.1-1
					c0.6-0.4,1.3-1,1.9-1.6l0,0C594.4,84.4,594.7,84.3,595,84.3z M634.4,54.8V92h-5.1V75.1h-20V92h-5.1V54.8h5.1v16.6h20V54.8H634.4
					z M646.1,54.8L646.1,54.8c0.4,0,0.8,0.1,1,0.2c0.2,0.1,0.4,0.3,0.7,0.7l0,0l21.5,28c-0.1-0.5-0.1-0.9-0.1-1.3c0-0.4,0-0.8,0-1.3
					l0,0V54.8h4.4V92H671c-0.4,0-0.7-0.1-1-0.2c-0.3-0.1-0.5-0.4-0.8-0.7l0,0l-21.5-28c0.1,0.4,0.1,0.8,0.1,1.3c0,0.4,0,0.8,0,1.1
					l0,0V92h-4.4V54.8H646.1z M717.2,73.4L717.2,73.4c0,2.8-0.4,5.4-1.3,7.7c-0.9,2.3-2.1,4.3-3.7,6c-1.6,1.7-3.5,3-5.8,3.9
					c-2.3,0.9-4.8,1.4-7.5,1.4l0,0c-2.7,0-5.2-0.5-7.4-1.4s-4.2-2.2-5.8-3.9c-1.6-1.7-2.9-3.7-3.8-6c-0.9-2.3-1.3-4.9-1.3-7.7l0,0
					c0-2.8,0.4-5.3,1.3-7.6c0.9-2.3,2.1-4.3,3.8-6c1.6-1.7,3.5-3,5.8-3.9s4.7-1.4,7.4-1.4l0,0c2.7,0,5.2,0.5,7.5,1.4
					c2.2,0.9,4.2,2.2,5.8,3.9c1.6,1.7,2.8,3.7,3.7,6C716.7,68.1,717.2,70.6,717.2,73.4z M712,73.4L712,73.4c0-2.3-0.3-4.3-0.9-6.1
					c-0.6-1.8-1.5-3.3-2.7-4.6c-1.1-1.3-2.5-2.2-4.1-2.9c-1.6-0.7-3.4-1-5.4-1l0,0c-2,0-3.8,0.3-5.4,1c-1.6,0.7-3,1.6-4.1,2.9
					c-1.2,1.2-2,2.8-2.7,4.6c-0.6,1.8-0.9,3.9-0.9,6.1l0,0c0,2.3,0.3,4.3,0.9,6.1c0.6,1.8,1.5,3.4,2.7,4.6c1.2,1.2,2.5,2.2,4.1,2.9
					s3.4,1,5.4,1l0,0c2,0,3.8-0.3,5.4-1c1.6-0.7,3-1.6,4.1-2.9c1.2-1.3,2-2.8,2.7-4.6C711.7,77.7,712,75.7,712,73.4z M729.1,54.8
					v32.9h16.1V92H724V54.8H729.1z M783.1,73.4L783.1,73.4c0,2.8-0.4,5.4-1.3,7.7c-0.9,2.3-2.1,4.3-3.7,6c-1.6,1.7-3.5,3-5.8,3.9
					c-2.2,0.9-4.7,1.4-7.5,1.4l0,0c-2.7,0-5.2-0.5-7.5-1.4s-4.2-2.2-5.8-3.9c-1.6-1.7-2.9-3.7-3.7-6c-0.9-2.3-1.3-4.9-1.3-7.7l0,0
					c0-2.8,0.4-5.3,1.3-7.6c0.9-2.3,2.1-4.3,3.7-6c1.6-1.7,3.5-3,5.8-3.9s4.7-1.4,7.5-1.4l0,0c2.7,0,5.2,0.5,7.5,1.4
					c2.2,0.9,4.2,2.2,5.8,3.9c1.6,1.7,2.9,3.7,3.7,6C782.7,68.1,783.1,70.6,783.1,73.4z M778,73.4L778,73.4c0-2.3-0.3-4.3-1-6.1
					c-0.6-1.8-1.5-3.3-2.6-4.6c-1.2-1.3-2.5-2.2-4.1-2.9c-1.6-0.7-3.5-1-5.4-1l0,0c-2,0-3.8,0.3-5.4,1c-1.6,0.7-3,1.6-4.1,2.9
					c-1.2,1.2-2,2.8-2.6,4.6c-0.6,1.8-1,3.9-1,6.1l0,0c0,2.3,0.3,4.3,1,6.1c0.6,1.8,1.5,3.4,2.6,4.6c1.2,1.2,2.5,2.2,4.1,2.9
					c1.6,0.7,3.5,1,5.4,1l0,0c2,0,3.8-0.3,5.4-1c1.6-0.7,3-1.6,4.1-2.9c1.1-1.3,2-2.8,2.6-4.6C777.6,77.7,778,75.7,778,73.4z
					 M806.5,88.3L806.5,88.3c1,0,1.9,0,2.8-0.1s1.6-0.2,2.4-0.4c0.7-0.2,1.5-0.4,2.1-0.7c0.7-0.3,1.3-0.6,1.9-0.9l0,0v-8.2H810
					c-0.3,0-0.6-0.1-0.8-0.3c-0.2-0.2-0.3-0.4-0.3-0.7l0,0v-2.9h11.4v14.3c-0.9,0.7-1.9,1.2-2.9,1.7c-1,0.5-2.1,0.9-3.2,1.3
					c-1.2,0.3-2.4,0.6-3.7,0.8c-1.3,0.2-2.8,0.3-4.3,0.3l0,0c-2.7,0-5.2-0.5-7.4-1.4c-2.2-0.9-4.2-2.2-5.8-3.9
					c-1.6-1.6-2.9-3.6-3.8-6c-0.9-2.3-1.3-4.9-1.3-7.7l0,0c0-2.8,0.4-5.4,1.3-7.7c0.9-2.3,2.1-4.3,3.8-6c1.6-1.7,3.6-3,6-3.9
					c2.4-0.9,5-1.3,7.9-1.3l0,0c1.5,0,2.8,0.1,4.1,0.3c1.3,0.2,2.4,0.5,3.5,1c1.1,0.4,2.1,0.9,3,1.5c0.9,0.6,1.8,1.2,2.5,1.9l0,0
					l-1.4,2.3c-0.3,0.5-0.7,0.7-1.1,0.7l0,0c-0.3,0-0.6-0.1-0.9-0.3l0,0c-0.4-0.3-0.9-0.6-1.5-0.9c-0.5-0.3-1.2-0.7-1.9-1
					c-0.8-0.3-1.7-0.6-2.7-0.8c-1-0.2-2.3-0.3-3.7-0.3l0,0c-2.1,0-4,0.3-5.7,1c-1.7,0.7-3.1,1.7-4.3,2.9c-1.2,1.3-2.1,2.8-2.7,4.6
					c-0.7,1.8-1,3.8-1,6l0,0c0,2.4,0.3,4.5,1,6.3c0.7,1.8,1.6,3.4,2.8,4.7c1.2,1.3,2.6,2.3,4.3,2.9C802.7,88,804.5,88.3,806.5,88.3z
					 M856,54.8l-13.7,22.4V92h-5V77.2l-13.6-22.4h4.4c0.5,0,0.8,0.1,1.1,0.3c0.3,0.2,0.5,0.5,0.6,0.8l0,0l8.5,14.4
					c0.3,0.6,0.6,1.2,0.9,1.7c0.2,0.5,0.4,1.1,0.6,1.6l0,0c0.2-0.5,0.4-1.1,0.6-1.6c0.2-0.5,0.5-1.1,0.9-1.7l0,0l8.5-14.4
					c0.2-0.3,0.4-0.5,0.6-0.8c0.3-0.3,0.6-0.4,1-0.4l0,0H856z"/>
        </g>
      </g>
    </g>
  </g>
</svg>