<?xml version="1.0" encoding="utf-8"?>
<!-- Generator: Adobe Illustrator 26.1.0, SVG Export Plug-In . SVG Version: 6.00 Build 0)  -->
<svg version="1.1" id="Layer_1" xmlns="http://www.w3.org/2000/svg" xmlns:xlink="http://www.w3.org/1999/xlink" x="0px" y="0px"
	 viewBox="0 0 259.2 259.5" style="enable-background:new 0 0 259.2 259.5;" xml:space="preserve">
<style type="text/css">
	.st0{fill:none;}
	.st1{fill-rule:evenodd;clip-rule:evenodd;fill:#007EE5;}
	.st2{fill-rule:evenodd;clip-rule:evenodd;fill:#3D464D;}
</style>
<path class="st0" d="M0,0h259.2v259.5H0V0z"/>
<g transform="translate(44.169998 94.963955)">
	<path class="st1" d="M-16,115.7l92.9,15.1v-26.3l-104.6-6.2C-24.3,104.4-20.4,110.2-16,115.7z M89.5,164.5v-22.7l-97.2-16.7
		c24.4,25.2,58,39.5,93.1,39.4H89.5z M-40.1,67.7l165.3,2.9v26L-36,80.7C-37.6,76.4-39,72.1-40.1,67.7z M-42.9,54.2l147.5,8.5V36.2
		l-148.7,5.2C-44,45.7-43.5,50-42.9,54.2z M-44.2,27.5l115.4,4.7V4.7L-42.8,15C-43.5,19.2-43.9,23.3-44.2,27.5z M-40,1.3l85.2-3.5
		v-26l-79.6,13C-36.6-9.8-38.5-4.3-40,1.3z M-27.8-28.7l91.9-8v-28.1l-77.9,15.9C-19.1-42.6-23.8-35.8-27.8-28.7z M84.6-95v23.9
		L-4.6-58.6C19.4-81.8,51.3-94.8,84.6-95z"/>
	<path class="st2" d="M189.4,112.6L76.9,130.8v-26.3l122.3-7.3C196.3,102.6,193,107.8,189.4,112.6z M89.5,164.5v-22.7l89.1-16.8
		C155.2,149.3,123.2,163.5,89.5,164.5z M205.6,83.7l-80.4,13v-26l85.6-2.8C209.4,73.3,207.7,78.6,205.6,83.7z M213.8,53.4
		l-109.3,9.3V36.2L215,40.6C214.8,44.9,214.4,49.2,213.8,53.4z M215,28.7L71.2,32.2V4.7l142.2,8.8C214.3,18.5,214.8,23.6,215,28.7z
		 M210.6,0.7l-165.4-3v-26l160.9,15.4C207.9-8.3,209.4-3.8,210.6,0.7z M199.2-27.5L64.1-36.7v-28.1l123,18.9
		c4.5,5.7,8.6,11.8,12.1,18.2V-27.5z M84.6-95v23.9l91.3,13C151.7-81.8,119.3-95,85.4-95H84.6z"/>
</g>
</svg>
