<?xml version="1.0" encoding="utf-8"?>
<!-- Generator: Adobe Illustrator 26.1.0, SVG Export Plug-In . SVG Version: 6.00 Build 0)  -->
<svg version="1.1" id="Layer_1" xmlns="http://www.w3.org/2000/svg" xmlns:xlink="http://www.w3.org/1999/xlink" x="0px" y="0px"
	 viewBox="0 0 1010.2 259.2" style="enable-background:new 0 0 1010.2 259.2;" xml:space="preserve">
<style type="text/css">
	.st0{fill:none;}
	.st1{fill:#0077C0;fill-opacity:0;}
	.st2{fill:none;stroke:#202121;stroke-width:12.5521;stroke-miterlimit:31.3801;}
	.st3{fill:#0077C0;}
</style>
<rect x="-229.3" y="-410.4" class="st0" width="1920" height="1080"/>
<g transform="translate(53.08000183105469,95)">
	<g transform="translate(0,0)">
		<g>
			<rect x="-53.1" y="-95" class="st1" width="259.2" height="259.2"/>
			<path class="st2" d="M199.8,34.6c0,68.1-55.2,123.3-123.3,123.3S-46.8,102.7-46.8,34.6S8.4-88.7,76.5-88.7S199.8-33.5,199.8,34.6
				z M37.6-82.4v234.1 M76.5-88.7v246.6 M115.4-82.4v234.1 M115.4,76l78.5-78.5 M115.4,20.8l59.9-59.9 M115.4-34.4l32-31.7
				 M-3.8,34.6L-41.2-2.7 M23.8,7l-46.1-46.1 M5.6-66.1l32,32 M156.9,34.6l37.3,37.3 M129.2,62.2l46.1,46.1 M115.4,103.6l32,32
				 M37.6-6.8l-78.5,78.5 M37.6,48.4l-59.9,59.9 M37.6,103.6l-32,31.7"/>
		</g>
	</g>
	<g transform="translate(67,2.7437515258789062)">
		<g transform="translate(0,0)">
			<g transform="scale(1)">
				<g>
					<path class="st3" d="M335.4-7.5V4.7h-32.7v77.7h-12.1V4.7h-84.9l-10.2,76.9l-12.1-1.5l10-75.4h-24.1V-7.5h25.8l8-59.4h-29
						v-12.3h156.4v12.3h-27.9v59.4H335.4z M215.4-66.9l-8,59.4h83.2v-59.4H215.4z M360.7,84.6L360.7,84.6l-11.5-4.2L396-44.5h-34.2
						c-2.1,0-3.8-0.9-5-2.8l0,0c-1.2-1.7-1.4-3.6-0.6-5.7l0,0l14.3-32.3l11.1,5l-10.4,23.6h29.3l10.8-28.8l11.3,4.2l-9.3,24.5h67.8
						l-8.6-21.3l11.3-4.5l10.2,25.8h27.1v12.3H408.8l-7.1,18.9h106.1c1.7,0,3.2,0.6,4.4,1.8c1.2,1.2,1.7,2.6,1.7,4.4l0,0v35.1
						c0,2.5-1.1,4.3-3.3,5.6l0,0l-37.7,19.5l50,33.8l-6.9,10l-55.4-37.5L387,85l-5.5-10.8l67.6-34.9L395.6,2.7l6.9-10L461.4,33
						l40.3-21v-25.3H397.3L360.7,84.6z M670.4,27.8L670.4,27.8l-3.5-2.1L667,26c1.1,1.1,1.6,2.5,1.6,4.2l0,0v45.4
						c0,1.7-0.5,3.2-1.6,4.3c-1.1,1.1-2.5,1.6-4.3,1.6l0,0h-38.4V69.4h32.3V36.3h-73.4l-28.9,46.3l-10.4-6.5l24.9-39.8H547V25.7
						l-3.5,2.1l-6.3-10.4L577.9-7h-37.5v-12.2h148.2c1.8,0,3.2,0.6,4.4,1.8c1.2,1.2,1.8,2.6,1.8,4.4l0,0v78.4l8.9-5.7l6.5,10.2
						l-18.2,11.7c-1.2,0.6-2.4,1-3.4,1l0,0c-0.7,0-1.7-0.2-2.9-0.7l0,0c-2.1-1.2-3.2-3-3.2-5.4l0,0V-7H636l40.5,24.4L670.4,27.8z
						 M703.2-62.5L703.2-62.5H546.6c-2.3,0-4.1-1.1-5.4-3.4l0,0c-0.5-1-0.7-2-0.6-3.2c0.1-1.1,0.4-2.1,1-3.2l0,0l9.5-13.7l10.2,7
						l-3,4.1h144.9V-62.5z M588.6,0.7L588.6,0.7l-39,23.4h113.1c0.6,0,1.2,0.1,1.6,0.2l0,0L625,0.7l4.6-7.6h-45.5L588.6,0.7z
						 M695.6-47.4v12.3h-149v-12.3H695.6z M884.1,80L884.1,80H736.3c-1.7,0-3.2-0.6-4.4-1.8c-1.2-1.2-1.7-2.6-1.7-4.4l0,0V-74
						c0-1.7,0.6-3.2,1.7-4.4c1.2-1.2,2.6-1.8,4.4-1.8l0,0h147.9c1.7,0,3.2,0.6,4.3,1.8c1.1,1.2,1.7,2.6,1.7,4.4l0,0V73.9
						c0,1.7-0.6,3.2-1.7,4.4C887.3,79.4,885.9,80,884.1,80L884.1,80z M813,65L813,65h-12.1V17.6h-52V5.5h52v-16.9h-47.6v-12.3h47.6
						v-18h-51.1v-12.2h51.1v-10.2H813v10.2h58.5v12.2H813v18h54.8v12.3H813V5.5h49.2c1.7,0,3.2,0.5,4.4,1.6c1.2,1.1,1.8,2.5,1.8,4.3
						l0,0v38.3c0,1.7-0.6,3.2-1.8,4.4c-1.2,1.2-2.6,1.8-4.4,1.8l0,0h-32.3V43.6h26.2v-26H813V65z M742.4-67.9V67.7H878V-67.9H742.4z
						"/>
				</g>
			</g>
		</g>
		<g transform="translate(5,46.55999755859375)">
			<rect x="186" y="85.9" class="st3" width="94.1" height="4.3"/>
			<rect x="769.4" y="85.9" class="st3" width="94.1" height="4.3"/>
			<g transform="translate(24.77499771118164,0)">
				<g transform="scale(1)">
					<path class="st3" d="M283.2,106.8h-15V69.7h15.2c10,0.5,15.2,6.6,15.6,18l0,0C298.5,100.1,293.2,106.5,283.2,106.8L283.2,106.8
						z M282.6,73.8h-9.3v28.8h9.7c7-0.4,10.7-5.2,10.9-14.4l0,0C293.8,78.8,290,74,282.6,73.8L282.6,73.8z M310.9,102.3h22.2v4.4
						h-27.3V69.7h26.9V74h-21.9v11.5h20.3V90h-20.3V102.3z M342.5,69.7l10.5,31.6l10.7-31.6h5.7l-13.6,37.1h-5.4l-13.6-37.1H342.5z
						 M374.9,69.7h5.1v37.1h-5.1V69.7z M402.5,73.8h-8.9v11.5h8.9c5.2,0.1,7.8-1.9,7.7-6.1l0,0C410.2,75.6,407.6,73.8,402.5,73.8
						L402.5,73.8z M404.5,106.8h-16V69.7h16.4c6.6,0.3,10.1,3.4,10.3,9.3l0,0c0,3.6-1.6,6.2-4.9,7.7l0,0c4.6,1.6,6.9,4.7,6.9,9.1
						l0,0C416.9,102.9,412.6,106.5,404.5,106.8L404.5,106.8z M403.3,89.6h-9.7v13h10.8c5.1-0.1,7.8-2.4,7.9-6.7l0,0
						C412.2,91.7,409.2,89.6,403.3,89.6L403.3,89.6z M428.6,102.3h22.3v4.4h-27.3V69.7h27V74h-21.9v11.5h20.3V90h-20.3V102.3z
						 M477.8,69.7l18.7,30v-30h4.8v37.1h-5.7l-18.8-30h-0.2v30h-4.8V69.7H477.8z M514.6,102.3h22.3v4.4h-27.3V69.7h27V74h-21.9v11.5
						h20.3V90h-20.3V102.3z M552.9,74h-12.5v-4.3h30V74h-12.6v32.8h-4.9V74z M595.5,76h-0.2l-8.5,30.8h-5.3l-9.7-37.1h5.3l7.1,30.2
						h0.2l8.3-30.2h5.5l8.3,30.2h0.2l6.9-30.2h5.5l-9.7,37.1H604L595.5,76z M653,88.3L653,88.3c-0.5-9.7-4.9-14.8-13-15.4l0,0
						c-8.2,0.4-12.6,5.5-13,15.4l0,0c0.4,9.6,4.7,14.6,13,15l0,0C648.1,102.8,652.4,97.8,653,88.3z M658,88.3L658,88.3
						c-0.8,12.3-6.8,18.6-18,19.1l0,0c-11.3-0.4-17.4-6.8-18.2-19.1l0,0c0.7-12.8,6.8-19.4,18.2-19.6l0,0
						C651.2,69.1,657.2,75.6,658,88.3z M681.7,90.8h-12.2v16h-5.1V69.7h17.2c8.2,0,12.4,3.3,12.4,9.9l0,0c0,4-1.8,7-5.3,8.9l0,0
						c3,0.8,4.4,3.2,4.4,7.1l0,0l0.4,6.7c-0.1,1.9,0.5,3.1,1.8,3.6l0,0v0.8h-6.3c-0.4-1.8-0.7-4.9-0.8-9.3l0,0
						C688.5,93,686.3,90.8,681.7,90.8L681.7,90.8z M682.1,73.8h-12.6v12.7h11.8c5,0,7.5-2.2,7.5-6.5l0,0
						C688.8,75.8,686.6,73.8,682.1,73.8L682.1,73.8z M712.1,88.1l-5.9,5.4v13.2h-5.1V69.7h5.1v18l18-18h7.1l-15.6,15l16,22.1h-6.7
						L712.1,88.1z"/>
				</g>
			</g>
		</g>
	</g>
</g>
</svg>
