<svg enable-background="new 0 0 1087.2 259.5" viewBox="0 0 1087.2 259.5" xmlns="http://www.w3.org/2000/svg"><path d="m0 0h259.2v259.5h-259.2z" fill="none"/><g clip-rule="evenodd" fill-rule="evenodd" transform="translate(44.169998 94.963955)"><path d="m-16 115.7 92.9 15.1v-26.3l-104.6-6.2c3.4 6.1 7.3 11.9 11.7 17.4zm105.5 48.8v-22.7l-97.2-16.7c24.4 25.2 58 39.5 93.1 39.4zm-129.6-96.8 165.3 2.9v26l-161.2-15.9c-1.6-4.3-3-8.6-4.1-13zm-2.8-13.5 147.5 8.5v-26.5l-148.7 5.2c.1 4.3.6 8.6 1.2 12.8zm-1.3-26.7 115.4 4.7v-27.5l-114 10.3c-.7 4.2-1.1 8.3-1.4 12.5zm4.2-26.2 85.2-3.5v-26l-79.6 13c-2.2 5.4-4.1 10.9-5.6 16.5zm12.2-30 91.9-8v-28.1l-77.9 15.9c-5.3 6.3-10 13.1-14 20.2zm112.4-66.3v23.9l-89.2 12.5c24-23.2 55.9-36.2 89.2-36.4z" fill="#00c5fb"/><path d="m189.4 112.6-112.5 18.2v-26.3l122.3-7.3c-2.9 5.4-6.2 10.6-9.8 15.4zm-99.9 51.9v-22.7l89.1-16.8c-23.4 24.3-55.4 38.5-89.1 39.5zm116.1-80.8-80.4 13v-26l85.6-2.8c-1.4 5.4-3.1 10.7-5.2 15.8zm8.2-30.3-109.3 9.3v-26.5l110.5 4.4c-.2 4.3-.6 8.6-1.2 12.8zm1.2-24.7-143.8 3.5v-27.5l142.2 8.8c.9 5 1.4 10.1 1.6 15.2zm-4.4-28-165.4-3v-26l160.9 15.4c1.8 4.6 3.3 9.1 4.5 13.6zm-11.4-28.2-135.1-9.2v-28.1l123 18.9c4.5 5.7 8.6 11.8 12.1 18.2zm-114.6-67.5v23.9l91.3 13c-24.2-23.7-56.6-36.9-90.5-36.9z" fill="#175bea"/></g><path d="m311.1 211.2h62.9v4.3h-62.9z" fill="#cecac8"/><path d="m1002.7 211.2h62.9v4.3h-62.9z" fill="#cecac8"/><path d="m415.2 224.3c.3 0 .5.1.8.3l1.9 2.2c-1.5 1.8-3.3 3.1-5.5 4.1s-4.8 1.5-7.8 1.5c-2.7 0-5.1-.5-7.3-1.4s-4-2.2-5.6-3.9c-1.5-1.6-2.7-3.6-3.6-6-.8-2.3-1.3-4.9-1.3-7.7s.4-5.4 1.3-7.7 2.2-4.3 3.8-6 3.6-3 5.9-3.9 4.8-1.4 7.6-1.4c2.7 0 5.1.4 7.1 1.3 2 .8 3.7 2 5.3 3.5l-1.6 2.3c-.1.2-.3.3-.4.4s-.4.2-.6.2-.5-.1-.7-.3c-.3-.1-.6-.3-.9-.6-.3-.2-.7-.5-1.2-.8s-1-.5-1.6-.8c-.6-.2-1.4-.4-2.2-.6s-1.8-.3-2.9-.3c-2 0-3.8.3-5.4 1s-3.1 1.7-4.3 2.9-2.1 2.8-2.8 4.6-1 3.8-1 6.1.3 4.4 1 6.2 1.6 3.3 2.7 4.6c1.2 1.3 2.5 2.2 4.1 2.9 1.6.6 3.3 1 5.1 1 1.1 0 2.1-.1 3-.2s1.7-.3 2.5-.6c.7-.3 1.4-.6 2.1-1s1.3-1 2-1.6c0-.2.2-.3.5-.3zm18.7-7.9h-3.8v15.6h-5v-37.2h10.5c2.4 0 4.4.2 6.1.7s3.2 1.1 4.3 2 1.9 2 2.5 3.3c.5 1.3.8 2.7.8 4.2 0 1.3-.2 2.6-.6 3.7s-1 2.1-1.8 3.1c-.8.9-1.7 1.7-2.9 2.3-1.2.7-2.4 1.2-3.8 1.5.6.4 1.2.9 1.6 1.6l10.7 14.8h-4.4c-.9 0-1.6-.4-2-1.1l-9.6-13.3c-.3-.4-.6-.7-1-.9s-.9-.3-1.6-.3zm-3.8-17.6v14h5.3c1.5 0 2.8-.2 3.9-.6 1.1-.3 2-.8 2.8-1.5.8-.6 1.4-1.4 1.7-2.3s.6-1.9.6-3c0-2.2-.7-3.9-2.2-5-1.4-1.1-3.6-1.7-6.5-1.7h-5.6zm27.8-4h22.9v4.1h-17.8v12.4h14.4v3.9h-14.4v12.7h17.8v4.1h-22.9zm45.9 0 14.8 37.2h-3.9c-.5 0-.8-.1-1.1-.3s-.5-.5-.6-.9l-3.5-8.9h-16.7l-3.5 8.9c-.1.3-.4.6-.6.9-.3.2-.6.3-1.1.3h-3.9l15-37.2zm-3.7 8.3-5.8 15.1h13.9l-5.8-15.1c-.4-.9-.7-2.1-1.1-3.5-.2.7-.4 1.4-.6 1.9-.2.6-.4 1.1-.6 1.6zm16-8.3h29.1v4.2h-12v33h-5v-33h-12.1zm40.3 0v37.2h-5v-37.2zm20.8 37.2-15.1-37.2h4c.5 0 .8.1 1.1.3s.5.5.6.9l10.5 26.2c.2.6.4 1.3.6 1.9.2.7.4 1.4.6 2.2.2-.7.3-1.5.5-2.2s.4-1.3.6-1.9l10.6-26.2c.1-.3.3-.6.6-.8.3-.3.6-.4 1.1-.4h4.1l-15.3 37.2zm24.5-37.2h22.9v4.1h-17.9v12.4h14.4v3.9h-14.4v12.7h17.8v4.1h-22.8zm36.3 0h29.1v4.2h-12v33h-5v-33h-12.1zm34.3 0h22.9v4.1h-17.8v12.4h14.5v3.9h-14.5v12.7h17.8v4.1h-22.9zm56.4 29.5c.3 0 .5.1.7.3l2 2.2c-1.5 1.8-3.4 3.1-5.5 4.1-2.2 1-4.8 1.5-7.9 1.5-2.7 0-5.1-.5-7.3-1.4s-4-2.2-5.6-3.9c-1.5-1.6-2.7-3.6-3.5-6-.9-2.3-1.3-4.9-1.3-7.7s.5-5.4 1.4-7.7 2.2-4.3 3.8-6 3.6-3 5.9-3.9 4.8-1.4 7.6-1.4c2.7 0 5.1.4 7.1 1.3 2 .8 3.7 2 5.3 3.5l-1.6 2.3c-.1.2-.3.3-.4.4s-.4.2-.6.2-.5-.1-.7-.3c-.2-.1-.5-.3-.9-.6-.3-.2-.8-.5-1.3-.8s-1-.5-1.6-.8c-.6-.2-1.4-.4-2.2-.6s-1.8-.3-2.9-.3c-2 0-3.8.3-5.5 1-1.6.7-3.1 1.7-4.2 2.9-1.2 1.2-2.1 2.8-2.8 4.6s-1 3.8-1 6.1.3 4.4 1 6.2 1.6 3.3 2.7 4.6c1.2 1.3 2.5 2.2 4.1 2.9 1.6.6 3.2 1 5.1 1 1.1 0 2.1-.1 3-.2s1.7-.3 2.5-.6c.7-.3 1.5-.6 2.1-1s1.3-1 1.9-1.6c0-.2.3-.3.6-.3zm39.4-29.5v37.2h-5.1v-16.9h-20v16.9h-5.1v-37.2h5.1v16.6h20v-16.6zm11.7 0c.4 0 .8.1 1 .2s.4.3.7.7l21.5 28c-.1-.5-.1-.9-.1-1.3s0-.8 0-1.3v-26.3h4.4v37.2h-2.6c-.4 0-.7-.1-1-.2s-.5-.4-.8-.7l-21.5-28c.1.4.1.8.1 1.3v1.1 26.5h-4.4v-37.2zm71.1 18.6c0 2.8-.4 5.4-1.3 7.7s-2.1 4.3-3.7 6-3.5 3-5.8 3.9-4.8 1.4-7.5 1.4-5.2-.5-7.4-1.4-4.2-2.2-5.8-3.9-2.9-3.7-3.8-6-1.3-4.9-1.3-7.7.4-5.3 1.3-7.6 2.1-4.3 3.8-6c1.6-1.7 3.5-3 5.8-3.9s4.7-1.4 7.4-1.4 5.2.5 7.5 1.4c2.2.9 4.2 2.2 5.8 3.9s2.8 3.7 3.7 6c.8 2.3 1.3 4.8 1.3 7.6zm-5.2 0c0-2.3-.3-4.3-.9-6.1s-1.5-3.3-2.7-4.6c-1.1-1.3-2.5-2.2-4.1-2.9s-3.4-1-5.4-1-3.8.3-5.4 1-3 1.6-4.1 2.9c-1.2 1.2-2 2.8-2.7 4.6-.6 1.8-.9 3.9-.9 6.1 0 2.3.3 4.3.9 6.1s1.5 3.4 2.7 4.6 2.5 2.2 4.1 2.9 3.4 1 5.4 1 3.8-.3 5.4-1 3-1.6 4.1-2.9c1.2-1.3 2-2.8 2.7-4.6.6-1.8.9-3.8.9-6.1zm17.1-18.6v32.9h16.1v4.3h-21.2v-37.2zm54 18.6c0 2.8-.4 5.4-1.3 7.7s-2.1 4.3-3.7 6-3.5 3-5.8 3.9c-2.2.9-4.7 1.4-7.5 1.4-2.7 0-5.2-.5-7.5-1.4s-4.2-2.2-5.8-3.9-2.9-3.7-3.7-6c-.9-2.3-1.3-4.9-1.3-7.7s.4-5.3 1.3-7.6 2.1-4.3 3.7-6 3.5-3 5.8-3.9 4.7-1.4 7.5-1.4c2.7 0 5.2.5 7.5 1.4 2.2.9 4.2 2.2 5.8 3.9s2.9 3.7 3.7 6c.9 2.3 1.3 4.8 1.3 7.6zm-5.1 0c0-2.3-.3-4.3-1-6.1-.6-1.8-1.5-3.3-2.6-4.6-1.2-1.3-2.5-2.2-4.1-2.9s-3.5-1-5.4-1c-2 0-3.8.3-5.4 1s-3 1.6-4.1 2.9c-1.2 1.2-2 2.8-2.6 4.6s-1 3.9-1 6.1c0 2.3.3 4.3 1 6.1.6 1.8 1.5 3.4 2.6 4.6 1.2 1.2 2.5 2.2 4.1 2.9s3.5 1 5.4 1c2 0 3.8-.3 5.4-1s3-1.6 4.1-2.9 2-2.8 2.6-4.6 1-3.8 1-6.1zm28.5 14.9c1 0 1.9 0 2.8-.1s1.6-.2 2.4-.4c.7-.2 1.5-.4 2.1-.7.7-.3 1.3-.6 1.9-.9v-8.2h-5.7c-.3 0-.6-.1-.8-.3s-.3-.4-.3-.7v-2.9h11.4v14.3c-.9.7-1.9 1.2-2.9 1.7s-2.1.9-3.2 1.3c-1.2.3-2.4.6-3.7.8s-2.8.3-4.3.3c-2.7 0-5.2-.5-7.4-1.4s-4.2-2.2-5.8-3.9c-1.6-1.6-2.9-3.6-3.8-6-.9-2.3-1.3-4.9-1.3-7.7s.4-5.4 1.3-7.7 2.1-4.3 3.8-6c1.6-1.7 3.6-3 6-3.9s5-1.3 7.9-1.3c1.5 0 2.8.1 4.1.3s2.4.5 3.5 1c1.1.4 2.1.9 3 1.5s1.8 1.2 2.5 1.9l-1.4 2.3c-.3.5-.7.7-1.1.7-.3 0-.6-.1-.9-.3-.4-.3-.9-.6-1.5-.9-.5-.3-1.2-.7-1.9-1-.8-.3-1.7-.6-2.7-.8s-2.3-.3-3.7-.3c-2.1 0-4 .3-5.7 1s-3.1 1.7-4.3 2.9c-1.2 1.3-2.1 2.8-2.7 4.6-.7 1.8-1 3.8-1 6 0 2.4.3 4.5 1 6.3s1.6 3.4 2.8 4.7 2.6 2.3 4.3 2.9c1.5.6 3.3.9 5.3.9zm49.5-33.5-13.7 22.4v14.8h-5v-14.8l-13.6-22.4h4.4c.5 0 .8.1 1.1.3s.5.5.6.8l8.5 14.4c.3.6.6 1.2.9 1.7.2.5.4 1.1.6 1.6.2-.5.4-1.1.6-1.6s.5-1.1.9-1.7l8.5-14.4c.2-.3.4-.5.6-.8.3-.3.6-.4 1-.4z" fill="#cecac8"/><g fill="#e2e0df"><path d="m453.4 94.3c.7.7 1.1 1.4 1.1 1.8s-.6.7-1.8.7h-45.4v37.3c0 11.4.1 20.1.3 25.9.2 5.9.3 8.9.3 9.1 0 2-1.2 3.5-3.5 4.3-2.3.9-3.7 1.3-4.2 1.3-1.2 0-1.8-1.3-1.8-4 0-.3.1-4.1.2-11.4.2-7.3.2-15.8.2-25.5v-37h-41.3c-.6 21.4-4.9 37.7-12.8 48.9-7.9 11.1-20.2 20.6-36.8 28.2l-.8-2.1c15.3-9.5 25.9-19.7 32.1-30.6 6.1-10.9 9.4-25.7 9.8-44.5h-29.1c-4.2 0-7.7.6-10.7 1.8l-4.5-5.9c5.1.4 9 .6 11.7.6h32.6c.3-11.8.5-21.2.5-28.2 0-6.9-.1-14-.2-21.1h-22.3c-4.2 0-7.7.6-10.7 1.8l-4.5-5.9c5.1.4 9 .6 11.7.6h104l6.7-9.3 10.1 10.2c.9.9 1.3 1.5 1.3 1.9s-.7.6-2.1.6h-36.2v49.3h28.7l7-9.4zm-54.4-1v-49.2h-40.5c0 19.5-.3 35.9-.8 49.3z"/><path d="m610.7 163.6c-3.6.3-6.6.9-9 1.8-2.3.9-4.3 2.5-5.8 4.9-.3.6-.7 1-1.3 1-1.3 0-7-2.2-17.1-6.6s-19.2-10.1-27.2-17.1c-14.5 12.9-36.2 21.9-65 27l-.8-2.4c28.8-8.6 49.1-18.4 60.8-29.3-10-10.7-16.7-24.5-20-41.6h-5.3c-11.3 29.3-28.9 52.3-52.8 69l-1.3-1.8c13.4-11.9 24.5-25.3 33.2-40.1s15.9-32.5 21.7-53.2h-31.4l-4.2 3.8c-.6.5-1.1.8-1.4.8s-.6-.2-1-.5l-8.2-8c3.8-1.1 6.3-2.1 7.4-3 1.1-1 2.4-3.1 3.8-6.4l11.5-26.6 9.4 7.7c.6.5 1 1 1 1.3s-.3.6-1 1l-5.9 2.4-11.5 24.2h32.3c3.8-14.7 7.1-29.7 9.8-44.8l12.2 7.4c.9.4 1.3.8 1.3 1.2s-.4.7-1.3 1c-3.4 1.3-5.8 4.9-7.2 10.7-1.4 5.9-3.6 14-6.7 24.5h61.8l7.8-9.9 10.1 10.2c1 1 1.4 1.7 1.4 2.2s-.7.8-2.1.8h-80c-2 7.3-4.5 14.8-7.5 22.6h48.2l6.2-6.4 10.7 8c.7.5 1.1 1 1.1 1.5s-.8.9-2.4 1.2-3 1-4.1 2-2.2 2.7-3.3 5c-6.7 14.1-14.3 25.4-22.7 33.9 16.6 13 35.1 19.1 55.5 18.4v2.2zm-39.4-62.3h-42.7c5.8 16.4 12.9 28.8 21.4 37.1 9.1-9.4 16.2-21.8 21.3-37.1zm-12.3-66.5c6.3 1.8 12.1 4 17.4 6.5s8.6 4.6 10.1 6.3c1.4 1.7 2.2 3.5 2.2 5.3s-.3 3.3-1 4.5-1.8 1.8-3.4 1.8-2.9-1.3-4-3.8c-1.1-2.6-3.5-5.6-7.2-9-3.7-3.5-8.7-6.6-14.9-9.5z"/><path d="m772.9 81c.7.7 1.1 1.3 1.1 1.7s-.6.6-1.9.6h-63.8c-9.9 8.3-20 16.2-30.2 23.5h51.7l5.1-7.2 9.9 7.8c.6.5 1 1 1 1.4s-.4.8-1.1 1.2l-4.5 2.7v38.4c0 4.1.1 7.6.3 10.7l.3 7.7c0 1.9-1.1 3.3-3.3 4.1s-3.5 1.2-4.1 1.2c-.5 0-.8-.7-.8-2.1v-11.4h-61.8v9.3c0 1.2-.2 2-.6 2.5s-1.3 1-2.7 1.6-2.6.9-3.4.9-1.2-1.2-1.2-3.7l.5-21.4v-33.6c-13.8 9-26.6 16.3-38.4 21.9l-1.3-2.2c13.7-8.4 26.9-17.1 39.7-25.9l-.5-10.2 7.2 5.3c9.7-7 19.2-14.5 28.5-22.4h-61.1c-4.1 0-7.6.5-10.7 1.6l-4.5-5.8c3.4.4 7.3.6 11.7.6h52.2v-26h-28.8c-3.9 0-7.4.5-10.2 1.6l-4.3-5.8c3.3.4 7 .6 11.2.6h32.2v-9.8c0-5.1-.2-10.3-.5-15.7l10.7 4.5c1 .4 1.4.8 1.4 1.2s-.3.8-.8 1.2l-3.5 3v15.5h15.2l5.6-8.2 9.1 9.9c.4.4.6.8.6 1.2s-.4.6-1.1.6h-29.4v25.9h9.3c17.1-14.8 31.2-29.6 42.4-44.3l9.3 6.7c.6.5 1 .9 1 1.2s-.8.6-2.3 1-2.7.8-3.5 1.2-1.7 1-2.6 2c-11 11.2-22.5 21.9-34.6 32.2h43.2l7.2-9.6zm-40.3 50.6v-21.3h-59.5l-2.2 1.6v19.7zm0 26.2v-22.7h-61.8v22.7z"/><path d="m929.3 45.7c1 1 1.4 1.6 1.4 2s-.6.6-1.9.6h-108.3c-15.5 22-27.9 37-37.4 45.1l-1.6-1.6c19.1-23.7 33-45.8 41.6-66.2l10.9 6.7c1.1.6 1.6 1.1 1.6 1.5s-.8.7-2.4 1-2.9.7-3.8 1.4c-.9.6-3 3.5-6.3 8.6h88.6l7.5-9.1zm-94.1 47.3c1.2.6 1.8 1.1 1.8 1.5s-.9.7-2.6 1-3.7 1.7-5.9 4.2c-13.9 16.3-27.5 30.3-41 41.9l-1.8-1.6c16.7-16.9 30.5-34.1 41.1-51.8zm35.2 34.9-4.5 2.7c-1.2 11.3-2.2 19.8-3 25.4-.9 5.7-1.9 9.7-3 12.2-1.2 2.5-3.2 4.6-6 6.4s-4.5 2.7-5 2.7-.9-.4-1-1.3c-.4-2.7-1.6-4.7-3.4-6.2-1.9-1.5-5.8-3.1-11.9-4.8l.6-2.2c6.6 1.4 11.6 2.1 14.9 2.1s5.4-1 6.4-3 1.9-6.6 2.9-14 1.6-14.4 1.9-21.1h-24.3c-3.3 15.4-8 26.5-14.2 33.4-6.1 6.9-17 13.2-32.6 19l-1-1.9c13.7-6.9 23.1-13.8 28.4-20.6s9-16.7 11.3-29.8h-1.9c-4.8.2-8.4.8-10.7 1.8l-4.5-5.9c5.1.4 9 .6 11.7.6h35.8l3.8-4.5 9.1 6.9c.6.4 1 .8 1 1.1.1.2-.2.6-.8 1zm59.7 10.6c-.6 5.9-1 11-1 15.4 0 8.1 1.1 13.9 3.4 17.3 1.1 1.6 1.6 2.8 1.6 3.5 0 1.3-.8 1.9-2.4 1.9-3.1 0-7.3-1.6-12.5-4.8s-10-7.9-14.2-14c-4.3-6.1-6.8-13.3-7.7-21.6s-1.3-17.3-1.3-27 .3-18.8.8-27.4h-72.8c-4.2 0-7.7.6-10.7 1.8l-4.5-5.9c3.5.4 7.4.6 11.7.6h73.8l5.6-6.9 9.9 7.7c.9.6 1.3 1.1 1.3 1.5s-.4.8-1.1 1.2l-5.4 3c-.9 9.1-1.3 18-1.3 26.9s.3 16.3 1 22.4c.6 6.1 2.1 11.2 4.5 15.4 2.3 4.2 4.9 7.4 7.7 9.7s4.6 3.4 5.6 3.4 1.7-1.5 2.2-4.5l3.7-20zm-15.7-76.8c1.2 1.1 1.8 1.8 1.8 2.2s-.8.6-2.4.6h-76.8c-4.2 0-7.7.6-10.7 1.8l-4.5-5.9c3.5.4 7.4.6 11.7.6h65.5l6.2-7.5zm-20 64.1c-5 .7-8.2 2.3-9.4 4.8-.3.4-.6.6-1 .6s-.6-.1-1-.3l-6.2-5.4c-3.8-3.4-7.1-6.7-9.8-9.9s-5.1-7-7.3-11.4-4.8-10.6-7.9-18.6l10.4 3.7c.9.2 1.3.5 1.3.8s-.4.7-1.1 1.1l-2.9 1.8c2.1 7.3 6.4 13.8 12.9 19.5 6.5 5.8 13.8 9.7 22 11.7z"/><path d="m1084.6 38.8-5.4 3.2v96.5c0 9.7.1 17.2.4 22.4s.4 7.9.4 8.2c0 1.6-1.1 2.9-3.4 3.8s-3.6 1.4-4.1 1.4-.7-.6-.7-1.9v-11.4h-107v8.5c0 1.6-.3 2.6-.8 3s-1.5 1-3 1.6c-1.4.6-2.6 1-3.4 1s-1.2-1-1.2-3l.6-13.4c.2-5.8.3-13 .3-21.8v-86.9c0-7.1-.2-14.9-.6-23.4l10.2 8.6h101.3l5.8-8.3 10.4 8.3c1.1.9 1.6 1.5 1.6 2s-.4 1.1-1.4 1.6zm-12.8 118.7v-118.7h-107v118.7zm-12.3-96.8c1.1 1.1 1.6 1.9 1.6 2.4s-.7.8-2.2.8h-41.6v18.4h19l6.2-7.8 8.8 8.2c1.1 1.1 1.6 1.9 1.6 2.4s-.7.8-2.2.8h-33.4v17.4h28l4.2-6.7 9 7.4c.9.6 1.3 1.1 1.3 1.5s-.4.8-1.3 1.2l-4.3 2.4c-1 10.9-2.1 18.2-3.4 21.8-1.3 3.7-3.4 6.4-6.3 8.2s-4.6 2.6-5.3 2.6c-.6 0-1-.4-1.1-1.1-.5-2.6-1.5-4.5-3-5.8-1.4-1.3-4.3-2.8-8.7-4.5l.5-2.1c5.5 1.5 9.7 2.2 12.3 2.2 2.7 0 4.4-1 5.3-2.9s1.8-8.9 2.7-21h-29.8v20.8c0 5.9.1 10 .2 12.3l.3 6.7c0 1.7-1.1 3-3.2 3.9s-3.5 1.4-4.2 1.4c-.6 0-1-.9-1-2.7l.5-8.2c.1-3.3.2-7.9.2-13.8v-20.5h-27.5c-2.9 0-5.4.5-7.5 1.4l-4.8-5.4c3.1.4 6.2.6 9.3.6h30.6v-17.2h-16.8c-3.8 0-7.4.6-10.7 1.9l-4.5-6.1c3.5.4 7.4.6 11.7.6h20.3v-18.3h-22.2c-3.8 0-7.4.6-10.7 1.9l-4.5-6.1c3.5.4 7.4.6 11.7.6h25.8c0-9.9-.2-17-.6-21.1l11 5.6c1.1.5 1.6 1 1.6 1.4s-.4.9-1.3 1.3l-3.5 1.8v11h27.4l5.9-8.5z"/></g></svg>