<svg enable-background="new 0 0 1087.2 259.5" viewBox="0 0 1087.2 259.5" xmlns="http://www.w3.org/2000/svg">
  <path d="m-.030002-.036045h259.2v259.5h-259.2z" fill="none"/>
  <g fill="#3d464d">
    <g clip-rule="evenodd" fill-rule="evenodd" transform="translate(44.169998 94.963955)">
      <path d="m-16 115.7 92.9 15.1v-26.3l-104.6-6.2c3.4 6.1 7.3 11.9 11.7 17.4zm105.5 48.8v-22.7l-97.2-16.7c24.4 25.2 58 39.5 93.1 39.4zm-129.6-96.8 165.3 2.9v26l-161.2-15.9c-1.6-4.3-3-8.6-4.1-13zm-2.8-13.5 147.5 8.5v-26.5l-148.7 5.2c.1 4.3.6 8.6 1.2 12.8zm-1.3-26.7 115.4 4.7v-27.5l-114 10.3c-.7 4.2-1.1 8.3-1.4 12.5zm4.2-26.2 85.2-3.5v-26l-79.6 13c-2.2 5.4-4.1 10.9-5.6 16.5zm12.2-30 91.9-8v-28.1l-77.9 15.9c-5.3 6.3-10 13.1-14 20.2zm112.4-66.3v23.9l-89.2 12.5c24-23.2 55.9-36.2 89.2-36.4z"/>
      <path d="m189.4 112.6-112.5 18.2v-26.3l122.3-7.3c-2.9 5.4-6.2 10.6-9.8 15.4zm-99.9 51.9v-22.7l89.1-16.8c-23.4 24.3-55.4 38.5-89.1 39.5zm116.1-80.8-80.4 13v-26l85.6-2.8c-1.4 5.4-3.1 10.7-5.2 15.9zm8.2-30.3-109.3 9.3v-26.5l110.5 4.4c-.2 4.3-.6 8.6-1.2 12.8zm1.2-24.7-143.8 3.5v-27.5l142.2 8.8c.9 5 1.4 10.1 1.6 15.2zm-4.4-28-165.4-3v-26l160.9 15.4c1.8 4.6 3.3 9.1 4.5 13.6zm-11.4-28.2-135.1-9.2v-28.1l123 18.9c4.5 5.7 8.6 11.8 12.1 18.2zm-114.6-67.5v23.9l91.3 13c-24.2-23.7-56.6-36.9-90.5-36.9z"/>
    </g>
    <path d="m186.9-61h145.8l-15.5 113c0 4.4-1.8 8-5.3 10.9s-7.5 4.3-11.9 4.3h-121.7l15.2-119.5zm102.3 21.8h-52.3l-12.9 84.7h52.1zm186.5 10.8-8.6 56.4h-69.5l-2.3 17.5h60.9l10.8-8.6-6.6 30.4h-95.4c-4.4 0-7.7-1.4-9.8-4.3-2.2-2.9-3.3-6.5-3.3-10.9l10.9-80.4h112.9zm-45.5 21.8h-26.3l-2 12.9h26zm117.7 32.6 26-54.3h41.4l-52.3 95.6h-43.5l-23.8-87-6.6-8.6h45.9zm142-87-4.3 26h-41.4l2.2-26zm-54.4 32.6h50l-13.1 95.6h-43.4l13.1-89.2zm87.7-45.7h47.8l-6.4 45.7h69.5l-10.9 80.4c-1.2 4.4-3.3 8-6.4 10.9-3 2.9-6.7 4.3-11.1 4.3h-97.7l19.4-134.7zm65.1 67.5h-26l-7.4 52.1h25.8zm187.7-21.8-8.6 56.4h-69.5l-2.2 17.5h60.9l10.8-8.6-6.6 30.4h-95.5c-4.4 0-7.7-1.4-9.8-4.3-2.2-2.9-3.3-6.5-3.3-10.9l10.8-80.5zm-45.5 21.8h-26.3l-2 12.9h26z" transform="translate(111.169998 101.252998)"/>
    <path d="m311.069998 211.152999h62.9v4.3h-62.9z"/>
    <path d="m1002.669998 211.152999h62.9v4.3h-62.9z"/>
    <path d="m281.5 84.3c.3 0 .5.1.8.3l1.9 2.2c-1.5 1.8-3.3 3.1-5.5 4.1s-4.8 1.5-7.8 1.5c-2.7 0-5.1-.5-7.3-1.4s-4-2.2-5.6-3.9c-1.5-1.6-2.7-3.6-3.6-6-.8-2.3-1.3-4.9-1.3-7.7 0-2.8.4-5.4 1.3-7.7s2.2-4.3 3.8-6 3.6-3 5.9-3.9 4.8-1.4 7.6-1.4c2.7 0 5.1.4 7.1 1.3 2 .8 3.7 2 5.3 3.5l-1.6 2.3c-.1.2-.3.3-.4.4s-.4.2-.6.2c-.2 0-.5-.1-.7-.3-.3-.1-.6-.3-.9-.6-.3-.2-.7-.5-1.2-.8s-1-.5-1.6-.8c-.6-.2-1.4-.4-2.2-.6s-1.8-.3-2.9-.3c-2 0-3.8.3-5.4 1s-3.1 1.7-4.3 2.9-2.1 2.8-2.8 4.6-1 3.8-1 6.1c0 2.3.3 4.4 1 6.2s1.6 3.3 2.7 4.6c1.2 1.3 2.5 2.2 4.1 2.9 1.6.6 3.3 1 5.1 1 1.1 0 2.1-.1 3-.2s1.7-.3 2.5-.6c.7-.3 1.4-.6 2.1-1s1.3-1 2-1.6c0-.2.2-.3.5-.3zm18.7-7.9h-3.8v15.6h-5v-37.2h10.5c2.4 0 4.4.2 6.1.7s3.2 1.1 4.3 2 1.9 2 2.5 3.3c.5 1.3.8 2.7.8 4.2 0 1.3-.2 2.6-.6 3.7s-1 2.1-1.8 3.1c-.8.9-1.7 1.7-2.9 2.3-1.2.7-2.4 1.2-3.8 1.5.6.4 1.2.9 1.6 1.6l10.7 14.8h-4.4c-.9 0-1.6-.4-2-1.1l-9.6-13.3c-.3-.4-.6-.7-1-.9s-.9-.3-1.6-.3zm-3.8-17.6v14h5.3c1.5 0 2.8-.2 3.9-.6 1.1-.3 2-.8 2.8-1.5.8-.6 1.4-1.4 1.7-2.3s.6-1.9.6-3c0-2.2-.7-3.9-2.2-5-1.4-1.1-3.6-1.7-6.5-1.7h-5.6zm27.8-4h22.9v4.1h-17.8v12.4h14.4v3.9h-14.4v12.7h17.8v4.1h-22.9zm45.9 0 14.8 37.2h-3.9c-.5 0-.8-.1-1.1-.3s-.5-.5-.6-.9l-3.5-8.9h-16.7l-3.5 8.9c-.1.3-.4.6-.6.9-.3.2-.6.3-1.1.3h-3.9l15-37.2zm-3.7 8.3-5.8 15.1h13.9l-5.8-15.1c-.4-.9-.7-2.1-1.1-3.5-.2.7-.4 1.4-.6 1.9-.2.6-.4 1.1-.6 1.6zm16-8.3h29.1v4.2h-12v33h-5v-33h-12.1zm40.3 0v37.2h-5v-37.2zm20.8 37.2-15.1-37.2h4c.5 0 .8.1 1.1.3s.5.5.6.9l10.5 26.2c.2.6.4 1.3.6 1.9.2.7.4 1.4.6 2.2.2-.7.3-1.5.5-2.2s.4-1.3.6-1.9l10.6-26.2c.1-.3.3-.6.6-.8.3-.3.6-.4 1.1-.4h4.1l-15.3 37.2zm24.5-37.2h22.9v4.1h-17.9v12.4h14.4v3.9h-14.4v12.7h17.8v4.1h-22.8zm36.3 0h29.1v4.2h-12v33h-5v-33h-12.1zm34.3 0h22.9v4.1h-17.8v12.4h14.5v3.9h-14.5v12.7h17.8v4.1h-22.9zm56.4 29.5c.3 0 .5.1.7.3l2 2.2c-1.5 1.8-3.4 3.1-5.5 4.1-2.2 1-4.8 1.5-7.9 1.5-2.7 0-5.1-.5-7.3-1.4s-4-2.2-5.6-3.9c-1.5-1.6-2.7-3.6-3.5-6-.9-2.3-1.3-4.9-1.3-7.7 0-2.8.5-5.4 1.4-7.7s2.2-4.3 3.8-6 3.6-3 5.9-3.9 4.8-1.4 7.6-1.4c2.7 0 5.1.4 7.1 1.3 2 .8 3.7 2 5.3 3.5l-1.6 2.3c-.1.2-.3.3-.4.4s-.4.2-.6.2c-.2 0-.5-.1-.7-.3-.2-.1-.5-.3-.9-.6-.3-.2-.8-.5-1.3-.8s-1-.5-1.6-.8c-.6-.2-1.4-.4-2.2-.6s-1.8-.3-2.9-.3c-2 0-3.8.3-5.5 1-1.6.7-3.1 1.7-4.2 2.9-1.2 1.2-2.1 2.8-2.8 4.6s-1 3.8-1 6.1c0 2.3.3 4.4 1 6.2s1.6 3.3 2.7 4.6c1.2 1.3 2.5 2.2 4.1 2.9 1.6.6 3.2 1 5.1 1 1.1 0 2.1-.1 3-.2s1.7-.3 2.5-.6c.7-.3 1.5-.6 2.1-1s1.3-1 1.9-1.6c0-.2.3-.3.6-.3zm39.4-29.5v37.2h-5.1v-16.9h-20v16.9h-5.1v-37.2h5.1v16.6h20v-16.6zm11.7 0c.4 0 .8.1 1 .2s.4.3.7.7l21.5 28c-.1-.5-.1-.9-.1-1.3s0-.8 0-1.3v-26.3h4.4v37.2h-2.6c-.4 0-.7-.1-1-.2s-.5-.4-.8-.7l-21.5-28c.1.4.1.8.1 1.3v1.1 26.5h-4.4v-37.2zm71.1 18.6c0 2.8-.4 5.4-1.3 7.7s-2.1 4.3-3.7 6-3.5 3-5.8 3.9-4.8 1.4-7.5 1.4c-2.7 0-5.2-.5-7.4-1.4s-4.2-2.2-5.8-3.9-2.9-3.7-3.8-6-1.3-4.9-1.3-7.7c0-2.8.4-5.3 1.3-7.6s2.1-4.3 3.8-6c1.6-1.7 3.5-3 5.8-3.9s4.7-1.4 7.4-1.4c2.7 0 5.2.5 7.5 1.4 2.2.9 4.2 2.2 5.8 3.9s2.8 3.7 3.7 6c.8 2.3 1.3 4.8 1.3 7.6zm-5.2 0c0-2.3-.3-4.3-.9-6.1s-1.5-3.3-2.7-4.6c-1.1-1.3-2.5-2.2-4.1-2.9s-3.4-1-5.4-1c-2 0-3.8.3-5.4 1s-3 1.6-4.1 2.9c-1.2 1.2-2 2.8-2.7 4.6-.6 1.8-.9 3.9-.9 6.1 0 2.3.3 4.3.9 6.1s1.5 3.4 2.7 4.6 2.5 2.2 4.1 2.9 3.4 1 5.4 1c2 0 3.8-.3 5.4-1s3-1.6 4.1-2.9c1.2-1.3 2-2.8 2.7-4.6.6-1.8.9-3.8.9-6.1zm17.1-18.6v32.9h16.1v4.3h-21.2v-37.2zm54 18.6c0 2.8-.4 5.4-1.3 7.7s-2.1 4.3-3.7 6-3.5 3-5.8 3.9c-2.2.9-4.7 1.4-7.5 1.4-2.7 0-5.2-.5-7.5-1.4s-4.2-2.2-5.8-3.9-2.9-3.7-3.7-6c-.9-2.3-1.3-4.9-1.3-7.7 0-2.8.4-5.3 1.3-7.6s2.1-4.3 3.7-6 3.5-3 5.8-3.9 4.7-1.4 7.5-1.4c2.7 0 5.2.5 7.5 1.4 2.2.9 4.2 2.2 5.8 3.9s2.9 3.7 3.7 6c.9 2.3 1.3 4.8 1.3 7.6zm-5.1 0c0-2.3-.3-4.3-1-6.1-.6-1.8-1.5-3.3-2.6-4.6-1.2-1.3-2.5-2.2-4.1-2.9s-3.5-1-5.4-1c-2 0-3.8.3-5.4 1s-3 1.6-4.1 2.9c-1.2 1.2-2 2.8-2.6 4.6s-1 3.9-1 6.1c0 2.3.3 4.3 1 6.1.6 1.8 1.5 3.4 2.6 4.6 1.2 1.2 2.5 2.2 4.1 2.9s3.5 1 5.4 1c2 0 3.8-.3 5.4-1s3-1.6 4.1-2.9 2-2.8 2.6-4.6 1-3.8 1-6.1zm28.5 14.9c1 0 1.9 0 2.8-.1s1.6-.2 2.4-.4c.7-.2 1.5-.4 2.1-.7.7-.3 1.3-.6 1.9-.9v-8.2h-5.7c-.3 0-.6-.1-.8-.3s-.3-.4-.3-.7v-2.9h11.4v14.3c-.9.7-1.9 1.2-2.9 1.7s-2.1.9-3.2 1.3c-1.2.3-2.4.6-3.7.8s-2.8.3-4.3.3c-2.7 0-5.2-.5-7.4-1.4s-4.2-2.2-5.8-3.9c-1.6-1.6-2.9-3.6-3.8-6-.9-2.3-1.3-4.9-1.3-7.7 0-2.8.4-5.4 1.3-7.7s2.1-4.3 3.8-6c1.6-1.7 3.6-3 6-3.9s5-1.3 7.9-1.3c1.5 0 2.8.1 4.1.3s2.4.5 3.5 1c1.1.4 2.1.9 3 1.5s1.8 1.2 2.5 1.9l-1.4 2.3c-.3.5-.7.7-1.1.7-.3 0-.6-.1-.9-.3-.4-.3-.9-.6-1.5-.9-.5-.3-1.2-.7-1.9-1-.8-.3-1.7-.6-2.7-.8s-2.3-.3-3.7-.3c-2.1 0-4 .3-5.7 1s-3.1 1.7-4.3 2.9c-1.2 1.3-2.1 2.8-2.7 4.6-.7 1.8-1 3.8-1 6 0 2.4.3 4.5 1 6.3s1.6 3.4 2.8 4.7 2.6 2.3 4.3 2.9c1.5.6 3.3.9 5.3.9zm49.5-33.5-13.7 22.4v14.8h-5v-14.8l-13.6-22.4h4.4c.5 0 .8.1 1.1.3s.5.5.6.8l8.5 14.4c.3.6.6 1.2.9 1.7.2.5.4 1.1.6 1.6.2-.5.4-1.1.6-1.6s.5-1.1.9-1.7l8.5-14.4c.2-.3.4-.5.6-.8.3-.3.6-.4 1-.4h4.6z" transform="translate(133.729996 139.952999)"/>
  </g>
</svg>